<svg width="259" height="257" viewBox="0 0 259 257" fill="none" xmlns="http://www.w3.org/2000/svg">
<path d="M254.952 128.568C254.952 57.8675 198.003 0.553528 127.752 0.553528C57.5016 0.553528 0.552216 57.8675 0.552216 128.568C0.552216 199.268 57.5016 256.582 127.752 256.582C198.003 256.582 254.952 199.268 254.952 128.568Z" fill="#6C524E"/>
<path d="M145.276 241.788C207.721 241.788 258.343 190.843 258.343 127.998C258.343 65.1531 207.721 14.2073 145.276 14.2073C82.8314 14.2073 32.2097 65.1531 32.2097 127.998C32.2097 190.843 82.8314 241.788 145.276 241.788Z" fill="#FDF4F1"/>
<path d="M71.0543 111.878H69.6141C69.2857 110.251 68.913 109.062 68.4961 108.312C68.0793 107.562 67.4413 106.977 66.5823 106.557C65.7358 106.125 64.7821 105.909 63.721 105.909C62.2176 105.909 61.0175 106.329 60.1207 107.167C59.2364 108.006 58.7942 109.024 58.7942 110.219C58.7942 111.275 59.1605 112.196 59.8933 112.985C60.6133 113.772 62.3692 114.771 65.1611 115.978C67.9656 117.186 69.873 118.432 70.8837 119.716C71.8817 121.013 72.3806 122.469 72.3806 124.083C72.3806 125.532 72.0017 126.88 71.2437 128.126C70.4984 129.372 69.3678 130.37 67.8519 131.12C66.3486 131.857 64.7253 132.227 62.982 132.227C61.7944 132.227 60.6007 132.111 59.4005 131.883C58.2131 131.654 56.7856 131.26 55.118 130.7C55.295 128.908 55.3834 126.531 55.3834 123.569H56.8425C57.2593 125.475 57.6888 126.81 58.131 127.574C58.5858 128.336 59.2679 128.965 60.1775 129.461C61.0871 129.944 62.0851 130.186 63.1715 130.186C64.6621 130.186 65.9696 129.766 67.0939 128.927C68.2182 128.088 68.7803 126.912 68.7803 125.399C68.7803 124.166 68.3761 123.073 67.5676 122.119C66.7465 121.178 64.9652 120.117 62.2239 118.934C59.4953 117.739 57.6699 116.595 56.7477 115.501C55.8255 114.421 55.3644 113.13 55.3644 111.63C55.3644 110.32 55.7371 109.075 56.4824 107.892C57.2277 106.698 58.3205 105.757 59.7606 105.07C61.2134 104.371 62.7167 104.022 64.2705 104.022C66.1402 104.022 68.4014 104.472 71.0543 105.375C70.9911 107.232 70.9595 108.351 70.9595 108.732C70.9595 109.507 70.9911 110.556 71.0543 111.878ZM83.1779 128.088C81.1566 125.685 80.146 122.488 80.146 118.496C80.146 114.211 81.4787 110.728 84.1443 108.046C86.8098 105.362 90.2396 104.022 94.434 104.022C97.8701 104.022 100.7 104.937 102.922 106.767L105.86 103.602L107.224 104.956L104.287 108.141C106.258 110.505 107.244 113.569 107.244 117.332C107.244 121.935 105.942 125.571 103.34 128.241C100.75 130.898 97.3268 132.227 93.0694 132.227C89.6082 132.227 86.7782 131.311 84.5801 129.48L81.5103 132.799L80.0702 131.444L83.1779 128.088ZM85.8118 125.246L100.667 109.209C99.8346 108.077 98.8046 107.238 97.5795 106.691C96.366 106.132 95.0717 105.852 93.6946 105.852C91.8119 105.852 90.119 106.354 88.6162 107.358C87.113 108.363 86.0139 109.825 85.3191 111.744C84.637 113.652 84.2959 115.774 84.2959 118.115C84.2959 120.809 84.8012 123.187 85.8118 125.246ZM101.71 110.944L86.8919 126.981C87.713 128.062 88.7366 128.895 89.9617 129.48C91.1867 130.052 92.5198 130.338 93.9599 130.338C95.8038 130.338 97.44 129.848 98.8675 128.87C100.308 127.891 101.388 126.455 102.108 124.56C102.841 122.665 103.207 120.542 103.207 118.191C103.207 115.419 102.708 113.004 101.71 110.944ZM113.056 105.718V104.593C115.167 104.733 116.77 104.803 117.87 104.803C119.121 104.803 120.466 104.733 121.906 104.593C122.424 105.928 122.841 106.946 123.157 107.644C123.573 108.585 125.222 112.152 128.102 118.343C129.327 120.975 130.566 123.542 131.816 126.047L139.907 108.923C140.4 107.867 140.988 106.424 141.67 104.593C143.362 104.733 144.657 104.803 145.554 104.803C146.388 104.803 147.797 104.733 149.78 104.593V105.718C149.401 105.82 149.117 105.89 148.927 105.928C147.172 106.284 146.192 106.544 145.991 106.71C145.662 106.965 145.498 107.606 145.498 108.637V108.884L145.422 114.929C145.422 122.532 145.454 127.147 145.516 128.775C145.529 129.118 145.623 129.372 145.801 129.537C145.991 129.703 147.07 129.976 149.041 130.357C149.205 130.382 149.452 130.44 149.78 130.529V131.654C147.506 131.514 145.504 131.444 143.773 131.444C142.005 131.444 139.913 131.514 137.501 131.654V130.529C137.994 130.401 138.366 130.313 138.619 130.262C140.16 129.97 141.038 129.766 141.253 129.652C141.48 129.524 141.631 129.353 141.708 129.137C141.821 128.768 141.878 127.738 141.878 126.047V109.399C140.728 111.687 138.133 117.198 134.09 125.933C132.978 128.336 132.157 130.173 131.626 131.444H130.547C127.717 125.126 124.25 117.777 120.144 109.399L120.39 127.172C120.39 128.584 120.503 129.391 120.731 129.595C120.959 129.798 121.912 130.046 123.592 130.338C123.782 130.376 124.073 130.44 124.464 130.529V131.654C122.279 131.514 120.51 131.444 119.159 131.444C117.807 131.444 116.019 131.514 113.796 131.654V130.529C114.162 130.427 114.434 130.363 114.611 130.338C116.279 130.008 117.213 129.722 117.415 129.48C117.719 129.124 117.876 128.253 117.889 126.867L117.984 122.576C118.047 118.66 118.078 114.866 118.078 111.191L118.059 108.865C118.059 107.937 118.003 107.358 117.889 107.129C117.775 106.888 117.592 106.717 117.339 106.615C116.86 106.424 115.786 106.201 114.118 105.947C113.878 105.909 113.524 105.833 113.056 105.718ZM156.238 118.305C156.238 114.135 157.571 110.715 160.236 108.046C162.914 105.362 166.35 104.022 170.544 104.022C174.448 104.022 177.556 105.204 179.868 107.568C182.179 109.933 183.335 113.187 183.335 117.332C183.335 121.935 182.033 125.571 179.431 128.241C176.829 130.898 173.406 132.227 169.161 132.227C165.181 132.227 162.03 131.019 159.705 128.603C157.394 126.188 156.238 122.755 156.238 118.305ZM160.388 117.732C160.388 121.928 161.298 125.081 163.116 127.191C164.949 129.289 167.26 130.338 170.051 130.338C171.896 130.338 173.532 129.848 174.96 128.87C176.387 127.891 177.467 126.461 178.2 124.579C178.933 122.684 179.299 120.593 179.299 118.305C179.299 115.431 178.831 113.048 177.897 111.153C176.962 109.259 175.806 107.905 174.429 107.091C173.052 106.265 171.505 105.852 169.786 105.852C167.904 105.852 166.218 106.354 164.727 107.358C163.237 108.351 162.138 109.794 161.43 111.687C160.735 113.569 160.388 115.584 160.388 117.732ZM189.945 105.718V104.593C192.445 104.733 195.168 104.803 198.111 104.803L206.563 104.689C209.431 104.689 211.717 105.108 213.423 105.947C215.141 106.774 216.474 108.096 217.421 109.914C218.368 111.732 218.842 113.849 218.842 116.264C218.842 120.714 217.339 124.388 214.332 127.288C211.325 130.186 207.289 131.635 202.224 131.635C201.933 131.635 200.777 131.597 198.755 131.52C196.734 131.457 195.547 131.425 195.193 131.425C193.968 131.425 192.219 131.501 189.945 131.654V130.529C192.004 130.134 193.147 129.9 193.375 129.823C193.614 129.747 193.785 129.658 193.885 129.556C193.987 129.455 194.056 129.315 194.094 129.137C194.157 128.87 194.201 127.789 194.227 125.895C194.303 121.763 194.341 118.756 194.341 116.874L194.227 108.522L194.246 107.873C194.246 107.238 194.063 106.831 193.697 106.653C193.482 106.525 192.231 106.214 189.945 105.718ZM198.036 129.385C200.082 129.639 201.8 129.766 203.19 129.766C205.351 129.766 207.132 129.417 208.534 128.718C210.542 127.688 212.064 126.188 213.101 124.217C214.148 122.246 214.673 119.825 214.673 116.951C214.673 115.45 214.497 114.084 214.142 112.85C213.801 111.605 213.341 110.613 212.759 109.876C211.913 108.782 210.808 107.949 209.443 107.377C208.079 106.793 206.108 106.5 203.531 106.5C201.977 106.5 200.145 106.595 198.036 106.786C197.96 110.13 197.922 113.919 197.922 118.153C197.922 122.627 197.96 126.371 198.036 129.385Z" fill="#0E0E0E"/>
<path d="M93.1935 174.301C91.5499 175.285 89.3568 175.778 86.6119 175.778H81.4463C81.4463 175.831 81.5512 175.787 81.7609 175.646C81.9707 175.488 82.1543 175.206 82.3116 174.802C82.4864 174.398 82.5738 173.808 82.5738 173.034V160.05C82.5738 159.364 82.4864 158.845 82.3116 158.493C82.1543 158.124 81.9707 157.878 81.7609 157.754C81.5512 157.631 81.4463 157.588 81.4463 157.623H86.5857C89.2603 157.623 91.3758 158.063 92.9313 158.942C94.3126 159.716 95.3783 160.763 96.1303 162.082C96.8823 163.402 97.2578 164.888 97.2578 166.542C97.2578 168.337 96.8991 169.894 96.1827 171.213C95.4831 172.515 94.4867 173.544 93.1935 174.301ZM92.1708 160.13C91.402 159.62 90.5797 159.25 89.706 159.021C88.8323 158.792 87.7919 158.678 86.5857 158.678H84.4618V174.723H86.5857C88.0192 174.723 89.19 174.599 90.0994 174.353C91.0255 174.107 91.8216 173.728 92.4855 173.219C93.3424 172.55 93.998 171.68 94.4521 170.606C94.9241 169.516 95.1601 168.249 95.1601 166.806C95.1601 165.275 94.8895 163.938 94.3472 162.795C93.8228 161.634 93.097 160.745 92.1708 160.13ZM103.581 175.778C103.581 175.831 103.686 175.796 103.896 175.673C104.106 175.532 104.289 175.268 104.447 174.881C104.621 174.477 104.709 173.896 104.709 173.139V160.182C104.709 159.461 104.621 158.916 104.447 158.546C104.289 158.159 104.106 157.895 103.896 157.754C103.686 157.614 103.581 157.57 103.581 157.623H113.074V160.261C112.759 159.206 111.815 158.678 110.242 158.678H106.597V166.173H111.107C111.456 166.173 111.753 166.12 111.998 166.014C112.243 165.891 112.426 165.768 112.549 165.645C112.671 165.521 112.741 165.442 112.759 165.407V167.967C112.741 167.932 112.671 167.853 112.549 167.73C112.426 167.606 112.243 167.492 111.998 167.387C111.771 167.281 111.482 167.228 111.133 167.228H106.597V174.723H110.687C111.474 174.723 112.146 174.564 112.706 174.248C113.283 173.913 113.693 173.491 113.939 172.981L113.467 175.778H103.581ZM124.829 176.095C123.92 176.095 123.046 175.971 122.207 175.726C121.368 175.462 120.616 175.101 119.952 174.644V171.45C120.406 172.63 121.096 173.527 122.023 174.142C122.967 174.741 123.946 175.039 124.96 175.039C125.973 175.039 126.822 174.705 127.504 174.037C128.185 173.351 128.526 172.506 128.526 171.503C128.526 170.835 128.386 170.263 128.107 169.788C127.845 169.313 127.416 168.873 126.822 168.469C126.227 168.046 125.388 167.58 124.305 167.07C122.784 166.366 121.673 165.636 120.975 164.88C120.293 164.106 119.952 163.173 119.952 162.082C119.952 161.15 120.17 160.323 120.607 159.602C121.062 158.863 121.665 158.3 122.417 157.913C123.186 157.509 124.025 157.306 124.934 157.306C125.721 157.306 126.489 157.42 127.241 157.649C127.992 157.86 128.692 158.168 129.339 158.573V161.423C128.92 160.455 128.281 159.707 127.425 159.179C126.586 158.634 125.729 158.361 124.855 158.361C123.859 158.361 123.054 158.687 122.443 159.338C121.83 159.989 121.525 160.763 121.525 161.66C121.525 162.311 121.709 162.874 122.076 163.349C122.443 163.806 122.889 164.193 123.413 164.51C123.954 164.827 124.706 165.214 125.668 165.671C126.647 166.146 127.451 166.586 128.081 166.991C128.71 167.395 129.234 167.923 129.654 168.574C130.073 169.225 130.283 170.017 130.283 170.949C130.283 172.005 130.029 172.92 129.523 173.694C129.033 174.467 128.369 175.066 127.53 175.488C126.708 175.892 125.808 176.095 124.829 176.095ZM136.506 175.778C136.506 175.831 136.611 175.796 136.821 175.673C137.03 175.532 137.222 175.285 137.398 174.934C137.572 174.564 137.66 174.028 137.66 173.324V160.077C137.66 159.373 137.572 158.845 137.398 158.493C137.24 158.124 137.057 157.878 136.847 157.754C136.637 157.631 136.532 157.588 136.532 157.623H140.701C140.701 157.588 140.597 157.631 140.387 157.754C140.177 157.878 139.984 158.124 139.81 158.493C139.635 158.845 139.548 159.373 139.548 160.077V173.324C139.548 174.028 139.635 174.564 139.81 174.934C139.984 175.285 140.177 175.523 140.387 175.646C140.597 175.77 140.701 175.813 140.701 175.778H136.506ZM156.081 176.069C154.419 176.069 152.882 175.717 151.466 175.013C150.05 174.309 148.913 173.253 148.057 171.846C147.2 170.439 146.772 168.724 146.772 166.7C146.772 164.906 147.174 163.296 147.978 161.871C148.8 160.446 149.945 159.329 151.413 158.52C152.899 157.71 154.603 157.306 156.527 157.306C157.75 157.306 158.851 157.446 159.83 157.728C160.827 158.01 161.614 158.317 162.19 158.652V161.581C161.648 160.631 160.835 159.866 159.752 159.285C158.685 158.704 157.592 158.414 156.474 158.414C154.918 158.414 153.564 158.749 152.41 159.417C151.273 160.068 150.399 161 149.788 162.214C149.175 163.428 148.87 164.853 148.87 166.489C148.87 168.266 149.219 169.788 149.919 171.055C150.635 172.321 151.579 173.271 152.751 173.905C153.921 174.538 155.198 174.855 156.579 174.855C157.208 174.855 157.854 174.784 158.519 174.644C159.201 174.485 159.83 174.266 160.407 173.984V169.63C160.407 169.084 160.319 168.662 160.145 168.363C159.97 168.046 159.778 167.827 159.568 167.703C159.358 167.563 159.254 167.51 159.254 167.545H163.449C163.449 167.51 163.344 167.545 163.134 167.65C162.925 167.756 162.732 167.959 162.558 168.257C162.382 168.539 162.295 168.944 162.295 169.471V174.274C161.368 174.855 160.363 175.303 159.28 175.62C158.213 175.919 157.146 176.069 156.081 176.069ZM186.548 157.623C186.304 157.675 186.059 157.878 185.814 158.229C185.587 158.564 185.473 159.162 185.473 160.024V176.517L172.048 160.763V173.403C172.048 174.248 172.197 174.846 172.493 175.198C172.791 175.532 173.08 175.726 173.359 175.778H169.661C169.907 175.726 170.151 175.532 170.396 175.198C170.658 174.846 170.789 174.239 170.789 173.377V160.182C170.789 159.584 170.589 159.039 170.186 158.546C169.784 158.053 169.278 157.746 168.665 157.623H171.916L184.214 172.057V160.024C184.214 158.67 183.76 157.868 182.851 157.623H186.548Z" fill="#0E0E0E"/>
</svg>
