<svg width="276" height="276" viewBox="0 0 276 276" fill="none" xmlns="http://www.w3.org/2000/svg">
<circle cx="138" cy="138" r="138" fill="#FDF4F1"/>
<rect x="16" y="16" width="242.55" height="242.55" rx="121.275" fill="#6C524E"/>
<circle cx="153.983" cy="136.735" r="107.8" fill="#FDF4F1"/>
<path d="M83.2173 121.464H81.8442C81.5311 119.922 81.1758 118.796 80.7783 118.085C80.3809 117.375 79.7726 116.821 78.9536 116.423C78.1466 116.014 77.2373 115.809 76.2256 115.809C74.7923 115.809 73.6481 116.207 72.793 117.001C71.9499 117.796 71.5283 118.76 71.5283 119.892C71.5283 120.892 71.8776 121.765 72.5762 122.512C73.2627 123.258 74.9368 124.204 77.5986 125.348C80.2725 126.492 82.0911 127.673 83.0547 128.889C84.0062 130.118 84.4819 131.497 84.4819 133.026C84.4819 134.399 84.1206 135.676 83.3979 136.856C82.6873 138.037 81.6094 138.982 80.1641 139.693C78.7308 140.391 77.1831 140.741 75.521 140.741C74.3888 140.741 73.2507 140.632 72.1064 140.416C70.9743 140.199 69.6133 139.825 68.0234 139.295C68.1921 137.597 68.2764 135.345 68.2764 132.539H69.6675C70.0649 134.345 70.4744 135.61 70.896 136.333C71.3296 137.055 71.98 137.651 72.8472 138.121C73.7144 138.579 74.6659 138.808 75.7017 138.808C77.1229 138.808 78.3695 138.41 79.4414 137.615C80.5133 136.82 81.0493 135.706 81.0493 134.273C81.0493 133.105 80.6639 132.069 79.8931 131.166C79.1102 130.274 77.4119 129.269 74.7983 128.148C72.1968 127.016 70.4564 125.932 69.5771 124.896C68.6979 123.873 68.2583 122.65 68.2583 121.229C68.2583 119.988 68.6136 118.808 69.3242 117.688C70.0348 116.556 71.0767 115.665 72.4497 115.014C73.8348 114.352 75.2681 114.021 76.7495 114.021C78.5321 114.021 80.688 114.448 83.2173 115.303C83.1571 117.062 83.127 118.122 83.127 118.483C83.127 119.218 83.1571 120.211 83.2173 121.464ZM94.7762 136.82C92.8491 134.544 91.8855 131.515 91.8855 127.733C91.8855 123.674 93.1562 120.374 95.6976 117.833C98.2389 115.291 101.509 114.021 105.508 114.021C108.784 114.021 111.482 114.888 113.601 116.622L116.402 113.623L117.702 114.906L114.902 117.923C116.781 120.163 117.721 123.066 117.721 126.631C117.721 130.991 116.48 134.436 113.999 136.965C111.53 139.482 108.266 140.741 104.207 140.741C100.907 140.741 98.2088 139.874 96.1131 138.139L93.1863 141.283L91.8133 140L94.7762 136.82ZM97.2874 134.128L111.451 118.935C110.657 117.863 109.675 117.068 108.507 116.55C107.35 116.02 106.116 115.755 104.803 115.755C103.008 115.755 101.394 116.231 99.9612 117.182C98.528 118.134 97.4801 119.519 96.8177 121.337C96.1673 123.144 95.8421 125.155 95.8421 127.372C95.8421 129.925 96.3239 132.177 97.2874 134.128ZM112.445 120.579L98.3172 135.772C99.1001 136.796 100.076 137.585 101.244 138.139C102.412 138.681 103.683 138.952 105.056 138.952C106.814 138.952 108.374 138.488 109.735 137.561C111.108 136.634 112.138 135.273 112.825 133.478C113.523 131.683 113.872 129.672 113.872 127.444C113.872 124.818 113.397 122.53 112.445 120.579ZM123.263 115.628V114.562C125.275 114.695 126.804 114.761 127.852 114.761C129.045 114.761 130.327 114.695 131.7 114.562C132.194 115.827 132.592 116.791 132.893 117.453C133.29 118.344 134.862 121.723 137.608 127.588C138.776 130.082 139.957 132.514 141.149 134.887L148.863 118.664C149.333 117.664 149.893 116.297 150.544 114.562C152.157 114.695 153.392 114.761 154.247 114.761C155.042 114.761 156.385 114.695 158.276 114.562V115.628C157.915 115.725 157.644 115.791 157.463 115.827C155.789 116.164 154.855 116.411 154.663 116.568C154.35 116.809 154.193 117.417 154.193 118.393V118.627L154.121 124.354C154.121 131.557 154.151 135.929 154.211 137.471C154.223 137.796 154.313 138.037 154.482 138.193C154.663 138.35 155.692 138.609 157.571 138.97C157.728 138.994 157.963 139.049 158.276 139.133V140.199C156.108 140.066 154.199 140 152.549 140C150.863 140 148.869 140.066 146.569 140.199V139.133C147.039 139.012 147.394 138.928 147.635 138.88C149.104 138.603 149.941 138.41 150.146 138.302C150.363 138.181 150.507 138.019 150.58 137.814C150.688 137.465 150.742 136.489 150.742 134.887V119.115C149.646 121.283 147.171 126.504 143.317 134.779C142.257 137.055 141.474 138.796 140.968 140H139.939C137.241 134.014 133.935 127.052 130.02 119.115L130.255 135.953C130.255 137.29 130.363 138.055 130.58 138.248C130.797 138.44 131.706 138.675 133.308 138.952C133.489 138.988 133.766 139.049 134.139 139.133V140.199C132.056 140.066 130.369 140 129.081 140C127.792 140 126.088 140.066 123.968 140.199V139.133C124.317 139.036 124.576 138.976 124.745 138.952C126.335 138.639 127.226 138.368 127.419 138.139C127.708 137.802 127.858 136.977 127.87 135.664L127.961 131.599C128.021 127.889 128.051 124.294 128.051 120.813L128.033 118.609C128.033 117.73 127.979 117.182 127.87 116.965C127.762 116.736 127.587 116.574 127.346 116.478C126.889 116.297 125.865 116.086 124.275 115.845C124.046 115.809 123.709 115.737 123.263 115.628ZM164.433 127.552C164.433 123.602 165.704 120.362 168.245 117.833C170.798 115.291 174.074 114.021 178.073 114.021C181.795 114.021 184.758 115.141 186.962 117.381C189.166 119.621 190.268 122.704 190.268 126.631C190.268 130.991 189.027 134.436 186.546 136.965C184.065 139.482 180.801 140.741 176.754 140.741C172.96 140.741 169.955 139.597 167.739 137.308C165.535 135.02 164.433 131.768 164.433 127.552ZM168.39 127.01C168.39 130.985 169.257 133.972 170.991 135.971C172.738 137.958 174.942 138.952 177.603 138.952C179.362 138.952 180.922 138.488 182.283 137.561C183.644 136.634 184.673 135.279 185.372 133.496C186.071 131.701 186.42 129.72 186.42 127.552C186.42 124.83 185.974 122.572 185.083 120.777C184.192 118.983 183.09 117.7 181.777 116.929C180.464 116.146 178.989 115.755 177.35 115.755C175.556 115.755 173.948 116.231 172.527 117.182C171.106 118.122 170.058 119.489 169.383 121.283C168.721 123.066 168.39 124.975 168.39 127.01ZM196.57 115.628V114.562C198.954 114.695 201.55 114.761 204.356 114.761L212.414 114.653C215.148 114.653 217.328 115.05 218.954 115.845C220.592 116.628 221.863 117.881 222.766 119.603C223.669 121.325 224.121 123.331 224.121 125.619C224.121 129.835 222.688 133.315 219.821 136.062C216.954 138.808 213.106 140.181 208.277 140.181C208 140.181 206.897 140.145 204.97 140.072C203.043 140.012 201.911 139.982 201.574 139.982C200.406 139.982 198.738 140.054 196.57 140.199V139.133C198.533 138.759 199.623 138.537 199.84 138.464C200.068 138.392 200.231 138.308 200.327 138.211C200.424 138.115 200.49 137.983 200.526 137.814C200.586 137.561 200.628 136.537 200.653 134.743C200.725 130.828 200.761 127.98 200.761 126.197L200.653 118.284L200.671 117.67C200.671 117.068 200.496 116.682 200.147 116.514C199.942 116.393 198.75 116.098 196.57 115.628ZM204.284 138.049C206.235 138.29 207.873 138.41 209.198 138.41C211.258 138.41 212.956 138.079 214.293 137.417C216.208 136.441 217.659 135.02 218.647 133.153C219.646 131.286 220.146 128.992 220.146 126.27C220.146 124.848 219.978 123.554 219.64 122.385C219.315 121.205 218.876 120.265 218.321 119.567C217.515 118.531 216.461 117.742 215.16 117.2C213.859 116.646 211.98 116.369 209.523 116.369C208.042 116.369 206.295 116.459 204.284 116.64C204.212 119.808 204.175 123.397 204.175 127.408C204.175 131.647 204.212 135.194 204.284 138.049Z" fill="#6C524E"/>
<path d="M104.325 180.6C102.758 181.533 100.667 182 98.05 182H93.125C93.125 182.05 93.225 182.008 93.425 181.875C93.625 181.725 93.8 181.458 93.95 181.075C94.1167 180.692 94.2 180.133 94.2 179.4V167.1C94.2 166.45 94.1167 165.958 93.95 165.625C93.8 165.275 93.625 165.042 93.425 164.925C93.225 164.808 93.125 164.767 93.125 164.8H98.025C100.575 164.8 102.592 165.217 104.075 166.05C105.392 166.783 106.408 167.775 107.125 169.025C107.842 170.275 108.2 171.683 108.2 173.25C108.2 174.95 107.858 176.425 107.175 177.675C106.508 178.908 105.558 179.883 104.325 180.6ZM103.35 167.175C102.617 166.692 101.833 166.342 101 166.125C100.167 165.908 99.175 165.8 98.025 165.8H96V181H98.025C99.3917 181 100.508 180.883 101.375 180.65C102.258 180.417 103.017 180.058 103.65 179.575C104.467 178.942 105.092 178.117 105.525 177.1C105.975 176.067 106.2 174.867 106.2 173.5C106.2 172.05 105.942 170.783 105.425 169.7C104.925 168.6 104.233 167.758 103.35 167.175ZM114.229 182C114.229 182.05 114.329 182.017 114.529 181.9C114.729 181.767 114.904 181.517 115.054 181.15C115.22 180.767 115.304 180.217 115.304 179.5V167.225C115.304 166.542 115.22 166.025 115.054 165.675C114.904 165.308 114.729 165.058 114.529 164.925C114.329 164.792 114.229 164.75 114.229 164.8H123.279V167.3C122.979 166.3 122.079 165.8 120.579 165.8H117.104V172.9H121.404C121.737 172.9 122.02 172.85 122.254 172.75C122.487 172.633 122.662 172.517 122.779 172.4C122.895 172.283 122.962 172.208 122.979 172.175V174.6C122.962 174.567 122.895 174.492 122.779 174.375C122.662 174.258 122.487 174.15 122.254 174.05C122.037 173.95 121.762 173.9 121.429 173.9H117.104V181H121.004C121.754 181 122.395 180.85 122.929 180.55C123.479 180.233 123.87 179.833 124.104 179.35L123.654 182H114.229ZM134.487 182.3C133.62 182.3 132.787 182.183 131.987 181.95C131.187 181.7 130.47 181.358 129.837 180.925V177.9C130.27 179.017 130.928 179.867 131.812 180.45C132.712 181.017 133.645 181.3 134.612 181.3C135.578 181.3 136.387 180.983 137.037 180.35C137.687 179.7 138.012 178.9 138.012 177.95C138.012 177.317 137.878 176.775 137.612 176.325C137.362 175.875 136.953 175.458 136.387 175.075C135.82 174.675 135.02 174.233 133.987 173.75C132.537 173.083 131.478 172.392 130.812 171.675C130.162 170.942 129.837 170.058 129.837 169.025C129.837 168.142 130.045 167.358 130.462 166.675C130.895 165.975 131.47 165.442 132.187 165.075C132.92 164.692 133.72 164.5 134.587 164.5C135.337 164.5 136.07 164.608 136.787 164.825C137.503 165.025 138.17 165.317 138.787 165.7V168.4C138.387 167.483 137.778 166.775 136.962 166.275C136.162 165.758 135.345 165.5 134.512 165.5C133.562 165.5 132.795 165.808 132.212 166.425C131.628 167.042 131.337 167.775 131.337 168.625C131.337 169.242 131.512 169.775 131.862 170.225C132.212 170.658 132.637 171.025 133.137 171.325C133.653 171.625 134.37 171.992 135.287 172.425C136.22 172.875 136.987 173.292 137.587 173.675C138.187 174.058 138.687 174.558 139.087 175.175C139.487 175.792 139.687 176.542 139.687 177.425C139.687 178.425 139.445 179.292 138.962 180.025C138.495 180.758 137.862 181.325 137.062 181.725C136.278 182.108 135.42 182.3 134.487 182.3ZM145.62 182C145.62 182.05 145.72 182.017 145.92 181.9C146.12 181.767 146.303 181.533 146.47 181.2C146.636 180.85 146.72 180.342 146.72 179.675V167.125C146.72 166.458 146.636 165.958 146.47 165.625C146.32 165.275 146.145 165.042 145.945 164.925C145.745 164.808 145.645 164.767 145.645 164.8H149.62C149.62 164.767 149.52 164.808 149.32 164.925C149.12 165.042 148.936 165.275 148.77 165.625C148.603 165.958 148.52 166.458 148.52 167.125V179.675C148.52 180.342 148.603 180.85 148.77 181.2C148.936 181.533 149.12 181.758 149.32 181.875C149.52 181.992 149.62 182.033 149.62 182H145.62ZM164.283 182.275C162.699 182.275 161.233 181.942 159.883 181.275C158.533 180.608 157.449 179.608 156.633 178.275C155.816 176.942 155.408 175.317 155.408 173.4C155.408 171.7 155.791 170.175 156.558 168.825C157.341 167.475 158.433 166.417 159.833 165.65C161.249 164.883 162.874 164.5 164.708 164.5C165.874 164.5 166.924 164.633 167.858 164.9C168.808 165.167 169.558 165.458 170.108 165.775V168.55C169.591 167.65 168.816 166.925 167.783 166.375C166.766 165.825 165.724 165.55 164.658 165.55C163.174 165.55 161.883 165.867 160.783 166.5C159.699 167.117 158.866 168 158.283 169.15C157.699 170.3 157.408 171.65 157.408 173.2C157.408 174.883 157.741 176.325 158.408 177.525C159.091 178.725 159.991 179.625 161.108 180.225C162.224 180.825 163.441 181.125 164.758 181.125C165.358 181.125 165.974 181.058 166.608 180.925C167.258 180.775 167.858 180.567 168.408 180.3V176.175C168.408 175.658 168.324 175.258 168.158 174.975C167.991 174.675 167.808 174.467 167.608 174.35C167.408 174.217 167.308 174.167 167.308 174.2H171.308C171.308 174.167 171.208 174.2 171.008 174.3C170.808 174.4 170.624 174.592 170.458 174.875C170.291 175.142 170.208 175.525 170.208 176.025V180.575C169.324 181.125 168.366 181.55 167.333 181.85C166.316 182.133 165.299 182.275 164.283 182.275ZM193.331 164.8C193.098 164.85 192.865 165.042 192.631 165.375C192.415 165.692 192.306 166.258 192.306 167.075V182.7L179.506 167.775V179.75C179.506 180.55 179.648 181.117 179.931 181.45C180.215 181.767 180.49 181.95 180.756 182H177.231C177.465 181.95 177.698 181.767 177.931 181.45C178.181 181.117 178.306 180.542 178.306 179.725V167.225C178.306 166.658 178.115 166.142 177.731 165.675C177.348 165.208 176.865 164.917 176.281 164.8H179.381L191.106 178.475V167.075C191.106 165.792 190.673 165.033 189.806 164.8H193.331Z" fill="#6C524E"/>
</svg>
